<?xml version="1.0" encoding="utf-8"?>
<!-- Generator: Adobe Illustrator 24.2.1, SVG Export Plug-In . SVG Version: 6.00 Build 0)  -->
<svg version="1.1" id="Layer_1" xmlns="http://www.w3.org/2000/svg" xmlns:xlink="http://www.w3.org/1999/xlink" x="0px" y="0px"
	 viewBox="0 0 20 20" style="enable-background:new 0 0 20 20;" xml:space="preserve">
<style type="text/css">
	.st0{clip-path:url(#SVGID_2_);}
	.st1{fill:#FAFAFA;}
</style>
<g>
	<defs>
		<rect id="SVGID_1_" y="0" width="20" height="20"/>
	</defs>
	<clipPath id="SVGID_2_">
		<use xlink:href="#SVGID_1_"  style="overflow:visible;"/>
	</clipPath>
	<g class="st0">
		<path class="st1" d="M14.2,18.5c-0.6,0-1-0.4-1-1v-1.7c0-0.6-0.2-1.2-0.7-1.7c-0.4-0.4-1-0.7-1.6-0.7H4.2c-0.6,0-1.2,0.2-1.6,0.7
			c-0.4,0.4-0.7,1-0.7,1.7v1.7c0,0.6-0.4,1-1,1s-1-0.4-1-1v-1.7c0-1.2,0.5-2.2,1.3-3.1C1.9,12,3,11.5,4.2,11.5h6.7
			c1.2,0,2.2,0.5,3.1,1.3s1.3,1.9,1.3,3.1v1.7C15.2,18.1,14.7,18.5,14.2,18.5z"/>
		<path class="st1" d="M7.5,10.2c-2.4,0-4.3-1.9-4.3-4.3c0-2.4,1.9-4.3,4.3-4.3c2.4,0,4.3,1.9,4.3,4.3C11.8,8.2,9.9,10.2,7.5,10.2z
			 M7.5,3.5c-1.3,0-2.3,1-2.3,2.3s1,2.3,2.3,2.3s2.3-1,2.3-2.3S8.8,3.5,7.5,3.5z"/>
		<path class="st1" d="M19.2,18.5c-0.6,0-1-0.4-1-1v-1.7c0-0.5-0.2-1-0.5-1.4c-0.3-0.4-0.8-0.7-1.3-0.8c-0.5-0.1-0.9-0.7-0.7-1.2
			c0.1-0.5,0.7-0.9,1.2-0.7c0.9,0.2,1.8,0.8,2.3,1.5c0.6,0.8,0.9,1.7,0.9,2.7v1.7C20.2,18.1,19.7,18.5,19.2,18.5z"/>
		<path class="st1" d="M13.3,10.1c-0.4,0-0.9-0.3-1-0.8c-0.1-0.5,0.2-1.1,0.7-1.2C13.6,8,14,7.7,14.3,7.3s0.5-0.9,0.5-1.4
			s-0.2-1-0.5-1.4C14,4,13.6,3.7,13.1,3.6c-0.5-0.1-0.9-0.7-0.7-1.2c0.1-0.5,0.7-0.9,1.2-0.7c0.9,0.2,1.8,0.8,2.3,1.5
			c0.6,0.8,0.9,1.7,0.9,2.7c0,1-0.3,1.9-0.9,2.7c-0.6,0.8-1.4,1.3-2.3,1.5C13.5,10.1,13.4,10.1,13.3,10.1z"/>
	</g>
</g>
</svg>
