<?xml version="1.0" encoding="utf-8"?>
<!-- Generator: Adobe Illustrator 24.2.1, SVG Export Plug-In . SVG Version: 6.00 Build 0)  -->
<svg version="1.1" id="Layer_1" xmlns="http://www.w3.org/2000/svg" xmlns:xlink="http://www.w3.org/1999/xlink" x="0px" y="0px"
	 viewBox="0 0 21 20" style="enable-background:new 0 0 21 20;" xml:space="preserve">
<style type="text/css">
	.st0{fill:#FAFAFA;}
</style>
<g>
	<path class="st0" d="M18.2,2.3c-0.5-0.5-1.2-0.8-1.9-0.8H13c-0.6,0-1,0.4-1,1s0.4,1,1,1h3.3c0.2,0,0.3,0.1,0.5,0.2
		C16.9,3.8,17,4,17,4.2v11.7c0,0.2-0.1,0.3-0.2,0.5s-0.3,0.2-0.5,0.2H13c-0.6,0-1,0.4-1,1s0.4,1,1,1h3.3c0.7,0,1.4-0.3,1.9-0.8
		c0.5-0.5,0.8-1.2,0.8-1.9V4.2C19,3.5,18.7,2.8,18.2,2.3z"/>
	<path class="st0" d="M13.9,10.4c0.1-0.2,0.1-0.5,0-0.8c-0.1-0.1-0.1-0.2-0.2-0.3L9.5,5.1c-0.4-0.4-1-0.4-1.4,0s-0.4,1,0,1.4L10.6,9
		H3c-0.6,0-1,0.4-1,1s0.4,1,1,1h7.6l-2.5,2.5c-0.4,0.4-0.4,1,0,1.4c0.2,0.2,0.5,0.3,0.7,0.3s0.5-0.1,0.7-0.3l4.2-4.2
		C13.8,10.6,13.9,10.5,13.9,10.4z"/>
</g>
</svg>
